<svg
                          width="22"
                          height="22"
                          viewBox="0 0 22 22"
                          fill="none"
                          xmlns="http://www.w3.org/2000/svg"
                        >
                          <path
                            d="M12.2761 4.48794C12.2761 4.06923 12.1098 3.66767 11.8137 3.37159C11.5176 3.07552 11.116 2.90919 10.6973 2.90919C10.2786 2.90919 9.87707 3.07552 9.58099 3.37159C9.28492 3.66767 9.11859 4.06923 9.11859 4.48794H8.06609C8.06609 3.79009 8.34331 3.12082 8.83676 2.62736C9.33022 2.13391 9.99949 1.85669 10.6973 1.85669C11.3952 1.85669 12.0645 2.13391 12.5579 2.62736C13.0514 3.12082 13.3286 3.79009 13.3286 4.48794H18.0648C18.2044 4.48794 18.3383 4.54338 18.437 4.64207C18.5356 4.74077 18.5911 4.87462 18.5911 5.01419C18.5911 5.15376 18.5356 5.28761 18.437 5.3863C18.3383 5.485 18.2044 5.54044 18.0648 5.54044H17.4818L16.1177 17.36C16.0583 17.873 15.8124 18.3463 15.4268 18.6898C15.0412 19.0332 14.5428 19.223 14.0264 19.2229H7.36828C6.85187 19.223 6.35345 19.0332 5.96784 18.6898C5.58224 18.3463 5.33635 17.873 5.27696 17.36L3.91187 5.54044H3.32984C3.20667 5.54048 3.08739 5.49732 2.99277 5.41847C2.89815 5.33961 2.83418 5.23007 2.81201 5.10891L2.80359 5.01419C2.80359 4.87462 2.85903 4.74077 2.95772 4.64207C3.05642 4.54338 3.19027 4.48794 3.32984 4.48794H12.2761ZM16.4208 5.54044H4.97279L6.3221 17.239C6.3518 17.4956 6.47482 17.7323 6.66773 17.904C6.86065 18.0758 7.10998 18.1706 7.36828 18.1704H14.0264C14.2845 18.1703 14.5336 18.0754 14.7263 17.9037C14.919 17.7319 15.0418 17.4954 15.0715 17.239L16.4208 5.54044ZM9.11859 8.17169C9.37645 8.17169 9.59221 8.33483 9.63642 8.54954L9.64484 8.63268V15.0792C9.64484 15.3329 9.40908 15.5392 9.11859 15.5392C8.86073 15.5392 8.64496 15.3761 8.60076 15.1613L8.59234 15.0782V8.63374C8.59234 8.37903 8.8281 8.17274 9.11859 8.17274V8.17169ZM12.2761 8.17169C12.534 8.17169 12.7497 8.33483 12.7939 8.54954L12.8023 8.63268V15.0792C12.8023 15.3329 12.5666 15.5392 12.2761 15.5392C12.0182 15.5392 11.8025 15.3761 11.7583 15.1613L11.7498 15.0782V8.63374C11.7498 8.37903 11.9856 8.17274 12.2761 8.17274V8.17169Z"
                            fill="#F25F4C"
                          />
                        </svg>