<svg
                          width="22"
                          height="22"
                          viewBox="0 0 22 22"
                          fill="none"
                          xmlns="http://www.w3.org/2000/svg"
                        >
                          <g clip-path="url(#clip0_422_32)">
                            <path
                              d="M20.2322 5.14278L16.7999 1.69292C16.5731 1.46726 16.2661 1.34058 15.9462 1.34058C15.6262 1.34058 15.3193 1.46726 15.0925 1.69292L2.92442 13.8435L1.81345 18.6382C1.77512 18.8134 1.77644 18.9951 1.81729 19.1698C1.85815 19.3445 1.93751 19.5078 2.04959 19.6479C2.16167 19.788 2.30363 19.9013 2.46511 19.9795C2.62658 20.0577 2.80348 20.0989 2.98289 20.1C3.06649 20.1084 3.15072 20.1084 3.23432 20.1L8.08167 18.989L20.2322 6.85017C20.4579 6.62336 20.5845 6.31643 20.5845 5.99648C20.5845 5.67653 20.4579 5.36959 20.2322 5.14278ZM7.49695 17.9365L2.95365 18.8896L3.98861 14.434L13.0927 5.36498L16.6011 8.87331L7.49695 17.9365ZM17.3846 8.02546L13.8763 4.51713L15.9111 2.49399L19.361 6.00233L17.3846 8.02546Z"
                              fill="#F25F4C"
                            />
                          </g>
                          <defs>
                            <clipPath id="clip0_422_32">
                              <rect
                                width="21.05"
                                height="21.05"
                                fill="white"
                                transform="translate(0.427734 0.277832)"
                              />
                            </clipPath>
                          </defs>
                        </svg>