<svg width="36" height="36" viewBox="0 0 36 36" fill="none" xmlns="http://www.w3.org/2000/svg">
<path d="M19.6339 5.20235C19.6339 4.62081 19.4029 4.06309 18.9917 3.65187C18.5805 3.24066 18.0228 3.00964 17.4412 3.00964C16.8597 3.00964 16.302 3.24066 15.8908 3.65187C15.4795 4.06309 15.2485 4.62081 15.2485 5.20235V14.7041H5.74679C5.16524 14.7041 4.60752 14.9351 4.19631 15.3463C3.78509 15.7575 3.55408 16.3153 3.55408 16.8968C3.55408 17.4783 3.78509 18.0361 4.19631 18.4473C4.60752 18.8585 5.16524 19.0895 5.74679 19.0895H15.2485V28.5912C15.2485 29.1728 15.4795 29.7305 15.8908 30.1417C16.302 30.5529 16.8597 30.7839 17.4412 30.7839C18.0228 30.7839 18.5805 30.5529 18.9917 30.1417C19.4029 29.7305 19.6339 29.1728 19.6339 28.5912V19.0895H29.1357C29.7172 19.0895 30.2749 18.8585 30.6862 18.4473C31.0974 18.0361 31.3284 17.4783 31.3284 16.8968C31.3284 16.3153 31.0974 15.7575 30.6862 15.3463C30.2749 14.9351 29.7172 14.7041 29.1357 14.7041H19.6339V5.20235Z" fill="white"/>
</svg>
